<svg width="38" height="37" viewBox="0 0 38 37" fill="none" xmlns="http://www.w3.org/2000/svg">
<g filter="url(#filter0_d_4_63)">
<path d="M26.2936 11.4909L20.2385 2.40831C19.9632 2.13308 19.5505 1.85785 19.1376 1.85785C18.7248 1.85785 18.3119 1.99546 18.0367 2.40831L11.9817 11.4909H5.37615C4.55046 11.4909 4 12.0413 4 12.867C4 13.0046 4 13.1423 4 13.2799L7.44037 26.078C7.7156 27.179 8.81651 28.1423 10.055 28.1423H27.945C29.1835 28.1423 30.2844 27.3166 30.5596 26.078L34 13.2799C34 13.1423 34 13.0046 34 12.867C34 12.0413 33.4495 11.4909 32.6239 11.4909H26.2936ZM15.0092 11.4909L19.1376 5.43583L23.2661 11.4909H15.0092ZM19.1376 22.5001C17.6239 22.5001 16.3853 21.2615 16.3853 19.7478C16.3853 18.234 17.6239 16.9955 19.1376 16.9955C20.6514 16.9955 21.8899 18.234 21.8899 19.7478C21.8899 21.2615 20.6514 22.5001 19.1376 22.5001Z" fill="#212121"/>
</g>
<defs>
<filter id="filter0_d_4_63" x="0" y="0" width="38" height="38" filterUnits="userSpaceOnUse" color-interpolation-filters="sRGB">
<feFlood flood-opacity="0" result="BackgroundImageFix"/>
<feColorMatrix in="SourceAlpha" type="matrix" values="0 0 0 0 0 0 0 0 0 0 0 0 0 0 0 0 0 0 127 0" result="hardAlpha"/>
<feOffset dy="4"/>
<feGaussianBlur stdDeviation="2"/>
<feComposite in2="hardAlpha" operator="out"/>
<feColorMatrix type="matrix" values="0 0 0 0 0 0 0 0 0 0 0 0 0 0 0 0 0 0 0.25 0"/>
<feBlend mode="normal" in2="BackgroundImageFix" result="effect1_dropShadow_4_63"/>
<feBlend mode="normal" in="SourceGraphic" in2="effect1_dropShadow_4_63" result="shape"/>
</filter>
</defs>
</svg>
