<svg width="24" height="24" viewBox="0 0 24 24" fill="#000000" xmlns="http://www.w3.org/2000/svg">
<g clip-path="url(#clip0_10_112)">
<path d="M16.5 0H7.5C5.51088 0 3.60322 0.790176 2.1967 2.1967C0.790176 3.60322 0 5.51088 0 7.5L0 16.5C0 18.4891 0.790176 20.3968 2.1967 21.8033C3.60322 23.2098 5.51088 24 7.5 24H16.5C18.4891 24 20.3968 23.2098 21.8033 21.8033C23.2098 20.3968 24 18.4891 24 16.5V7.5C24 5.51088 23.2098 3.60322 21.8033 2.1967C20.3968 0.790176 18.4891 0 16.5 0V0ZM21.75 16.5C21.75 19.395 19.395 21.75 16.5 21.75H7.5C4.605 21.75 2.25 19.395 2.25 16.5V7.5C2.25 4.605 4.605 2.25 7.5 2.25H16.5C19.395 2.25 21.75 4.605 21.75 7.5V16.5Z" fill="#000000"/>
<path d="M12 6C10.4087 6 8.88258 6.63214 7.75736 7.75736C6.63214 8.88258 6 10.4087 6 12C6 13.5913 6.63214 15.1174 7.75736 16.2426C8.88258 17.3679 10.4087 18 12 18C13.5913 18 15.1174 17.3679 16.2426 16.2426C17.3679 15.1174 18 13.5913 18 12C18 10.4087 17.3679 8.88258 16.2426 7.75736C15.1174 6.63214 13.5913 6 12 6ZM12 15.75C11.0058 15.7488 10.0527 15.3533 9.34966 14.6503C8.64666 13.9473 8.25119 12.9942 8.25 12C8.25 9.9315 9.933 8.25 12 8.25C14.067 8.25 15.75 9.9315 15.75 12C15.75 14.067 14.067 15.75 12 15.75Z" fill="#000000"/>
<path d="M18.45 6.34949C18.8916 6.34949 19.2495 5.99154 19.2495 5.54999C19.2495 5.10844 18.8916 4.75049 18.45 4.75049C18.0085 4.75049 17.6505 5.10844 17.6505 5.54999C17.6505 5.99154 18.0085 6.34949 18.45 6.34949Z" fill="##000000"/>
</g>
<defs>
<clipPath id="clip0_10_112">
<rect width="24" height="24" fill="#000000"/>
</clipPath>
</defs>
</svg>
