<svg width="136" height="32" viewBox="0 0 136 32" fill="none" xmlns="http://www.w3.org/2000/svg">
<path d="M0.556818 25V1.72727H14.9886V4.75H4.06818V11.8409H13.9545V14.8523H4.06818V25H0.556818ZM25.2756 25.3523C23.5559 25.3523 22.0748 24.9848 20.8324 24.25C19.5975 23.5076 18.643 22.4659 17.9688 21.125C17.3021 19.7765 16.9688 18.197 16.9688 16.3864C16.9688 14.5985 17.3021 13.0227 17.9688 11.6591C18.643 10.2955 19.5824 9.23106 20.7869 8.46591C21.9991 7.70076 23.4157 7.31818 25.0369 7.31818C26.0218 7.31818 26.9763 7.48106 27.9006 7.80682C28.8248 8.13258 29.6544 8.64394 30.3892 9.34091C31.1241 10.0379 31.7036 10.9432 32.1278 12.0568C32.5521 13.1629 32.7642 14.5076 32.7642 16.0909V17.2955H18.8892V14.75H29.4347C29.4347 13.8561 29.2528 13.0644 28.8892 12.375C28.5256 11.678 28.0142 11.1288 27.3551 10.7273C26.7036 10.3258 25.9384 10.125 25.0597 10.125C24.1051 10.125 23.2718 10.3598 22.5597 10.8295C21.8551 11.2917 21.3097 11.8977 20.9233 12.6477C20.5445 13.3902 20.3551 14.197 20.3551 15.0682V17.0568C20.3551 18.2235 20.5597 19.2159 20.9688 20.0341C21.3854 20.8523 21.965 21.4773 22.7074 21.9091C23.4498 22.3333 24.3172 22.5455 25.3097 22.5455C25.9536 22.5455 26.5407 22.4545 27.071 22.2727C27.6013 22.0833 28.0597 21.803 28.446 21.4318C28.8324 21.0606 29.1278 20.6023 29.3324 20.0568L32.5483 20.6364C32.2907 21.5833 31.8286 22.4129 31.1619 23.125C30.5028 23.8295 29.6733 24.3788 28.6733 24.7727C27.6809 25.1591 26.5483 25.3523 25.2756 25.3523ZM36.5341 25V7.54545H39.7955V10.3864H40.0114C40.375 9.42424 40.9697 8.67424 41.7955 8.13636C42.6212 7.59091 43.6098 7.31818 44.7614 7.31818C45.928 7.31818 46.9053 7.59091 47.6932 8.13636C48.4886 8.68182 49.0758 9.43182 49.4545 10.3864H49.6364C50.053 9.45455 50.7159 8.71212 51.625 8.15909C52.5341 7.59848 53.6174 7.31818 54.875 7.31818C56.4583 7.31818 57.75 7.81439 58.75 8.80682C59.7576 9.79924 60.2614 11.2955 60.2614 13.2955V25H56.8636V13.6136C56.8636 12.4318 56.5417 11.5758 55.8977 11.0455C55.2538 10.5152 54.4848 10.25 53.5909 10.25C52.4848 10.25 51.625 10.5909 51.0114 11.2727C50.3977 11.947 50.0909 12.8144 50.0909 13.875V25H46.7045V13.3977C46.7045 12.4508 46.4091 11.6894 45.8182 11.1136C45.2273 10.5379 44.4583 10.25 43.5114 10.25C42.8674 10.25 42.2727 10.4205 41.7273 10.7614C41.1894 11.0947 40.7538 11.5606 40.4205 12.1591C40.0947 12.7576 39.9318 13.4508 39.9318 14.2386V25H36.5341ZM64.8153 25V7.54545H68.2131V25H64.8153ZM66.5312 4.85227C65.9403 4.85227 65.4328 4.6553 65.0085 4.26136C64.5919 3.85985 64.3835 3.38257 64.3835 2.82954C64.3835 2.26894 64.5919 1.79167 65.0085 1.39773C65.4328 0.996211 65.9403 0.795454 66.5312 0.795454C67.1222 0.795454 67.6259 0.996211 68.0426 1.39773C68.4669 1.79167 68.679 2.26894 68.679 2.82954C68.679 3.38257 68.4669 3.85985 68.0426 4.26136C67.6259 4.6553 67.1222 4.85227 66.5312 4.85227ZM73.0568 25V1.72727H81.5795C83.2311 1.72727 84.5985 2 85.6818 2.54545C86.7652 3.08333 87.5758 3.81439 88.1136 4.73864C88.6515 5.6553 88.9205 6.68939 88.9205 7.84091C88.9205 8.81061 88.7424 9.62879 88.3864 10.2955C88.0303 10.9545 87.553 11.4848 86.9545 11.8864C86.3636 12.2803 85.7121 12.5682 85 12.75V12.9773C85.7727 13.0152 86.5265 13.2652 87.2614 13.7273C88.0038 14.1818 88.6174 14.8295 89.1023 15.6705C89.5871 16.5114 89.8295 17.5341 89.8295 18.7386C89.8295 19.928 89.5492 20.9962 88.9886 21.9432C88.4356 22.8826 87.5795 23.6288 86.4205 24.1818C85.2614 24.7273 83.7803 25 81.9773 25H73.0568ZM76.5682 21.9886H81.6364C83.3182 21.9886 84.5227 21.6629 85.25 21.0114C85.9773 20.3598 86.3409 19.5455 86.3409 18.5682C86.3409 17.8333 86.1553 17.1591 85.7841 16.5455C85.4129 15.9318 84.8826 15.4432 84.1932 15.0795C83.5114 14.7159 82.7008 14.5341 81.7614 14.5341H76.5682V21.9886ZM76.5682 11.7955H81.2727C82.0606 11.7955 82.7689 11.6439 83.3977 11.3409C84.0341 11.0379 84.5379 10.6136 84.9091 10.0682C85.2879 9.51515 85.4773 8.86364 85.4773 8.11364C85.4773 7.15151 85.1402 6.3447 84.4659 5.69318C83.7917 5.04167 82.7576 4.71591 81.3636 4.71591H76.5682V11.7955ZM97.1193 1.72727V25H93.7216V1.72727H97.1193ZM106.77 25.3864C105.664 25.3864 104.664 25.1818 103.77 24.7727C102.876 24.3561 102.168 23.7538 101.645 22.9659C101.13 22.178 100.872 21.2121 100.872 20.0682C100.872 19.0833 101.062 18.2727 101.44 17.6364C101.819 17 102.33 16.4962 102.974 16.125C103.618 15.7538 104.338 15.4735 105.134 15.2841C105.929 15.0947 106.74 14.9508 107.565 14.8523C108.611 14.7311 109.459 14.6326 110.111 14.5568C110.762 14.4735 111.236 14.3409 111.531 14.1591C111.827 13.9773 111.974 13.6818 111.974 13.2727V13.1932C111.974 12.2008 111.694 11.4318 111.134 10.8864C110.58 10.3409 109.755 10.0682 108.656 10.0682C107.512 10.0682 106.611 10.322 105.952 10.8295C105.3 11.3295 104.849 11.8864 104.599 12.5L101.406 11.7727C101.785 10.7121 102.338 9.85606 103.065 9.20455C103.8 8.54545 104.645 8.06818 105.599 7.77273C106.554 7.4697 107.558 7.31818 108.611 7.31818C109.308 7.31818 110.046 7.40152 110.827 7.56818C111.615 7.72727 112.349 8.02273 113.031 8.45454C113.721 8.88636 114.285 9.50379 114.724 10.3068C115.164 11.1023 115.384 12.1364 115.384 13.4091V25H112.065V22.6136H111.929C111.709 23.053 111.38 23.4848 110.94 23.9091C110.501 24.3333 109.937 24.6856 109.247 24.9659C108.558 25.2462 107.732 25.3864 106.77 25.3864ZM107.509 22.6591C108.448 22.6591 109.251 22.4735 109.918 22.1023C110.592 21.7311 111.103 21.2462 111.452 20.6477C111.808 20.0417 111.986 19.3939 111.986 18.7045V16.4545C111.865 16.5758 111.63 16.6894 111.281 16.7955C110.94 16.8939 110.55 16.9811 110.111 17.0568C109.671 17.125 109.243 17.1894 108.827 17.25C108.41 17.303 108.062 17.3485 107.781 17.3864C107.122 17.4697 106.52 17.6098 105.974 17.8068C105.437 18.0038 105.005 18.2879 104.679 18.6591C104.361 19.0227 104.202 19.5076 104.202 20.1136C104.202 20.9545 104.512 21.5909 105.134 22.0227C105.755 22.447 106.546 22.6591 107.509 22.6591ZM131.693 31.5455V22.2841H131.489C131.284 22.6553 130.989 23.0795 130.602 23.5568C130.223 24.0341 129.701 24.4508 129.034 24.8068C128.367 25.1629 127.504 25.3409 126.443 25.3409C125.034 25.3409 123.777 24.9811 122.67 24.2614C121.572 23.5341 120.708 22.5 120.08 21.1591C119.458 19.8106 119.148 18.1932 119.148 16.3068C119.148 14.4205 119.462 12.8068 120.091 11.4659C120.727 10.125 121.598 9.09848 122.705 8.38636C123.811 7.67424 125.064 7.31818 126.466 7.31818C127.549 7.31818 128.42 7.5 129.08 7.86364C129.746 8.2197 130.261 8.63636 130.625 9.11364C130.996 9.59091 131.284 10.0114 131.489 10.375H131.773V7.54545H135.091V31.5455H131.693ZM127.193 22.4432C128.17 22.4432 128.996 22.1856 129.67 21.6705C130.352 21.1477 130.867 20.4242 131.216 19.5C131.572 18.5758 131.75 17.5 131.75 16.2727C131.75 15.0606 131.576 14 131.227 13.0909C130.879 12.1818 130.367 11.4735 129.693 10.9659C129.019 10.4583 128.186 10.2045 127.193 10.2045C126.17 10.2045 125.318 10.4697 124.636 11C123.955 11.5303 123.439 12.2538 123.091 13.1705C122.75 14.0871 122.58 15.1212 122.58 16.2727C122.58 17.4394 122.754 18.4886 123.102 19.4205C123.451 20.3523 123.966 21.0909 124.648 21.6364C125.337 22.1742 126.186 22.4432 127.193 22.4432Z" fill="#F9F5FF"/>
</svg>
